<svg id="Layer_1" data-name="Layer 1" xmlns="http://www.w3.org/2000/svg" viewBox="0 0 476.19 298.72"><defs><style>.cls-1{fill:#231f20;}</style></defs><path class="cls-1" d="M96.1,474.87c10.22-33.67,21-67.23,30-101.24,4.48-16.85,8.42-33.85,11.29-51.05C140,307.27,141,291.43,146,276.67a60.76,60.76,0,0,1,11.47-20.08,129.48,129.48,0,0,1,16.63-15.37c9.71-7.85,23.62-19.47,36-9.79,9.4,7.33,12.17,20.93,12.09,32.19a84.51,84.51,0,0,1-8.84,36.47c-11.25,22.84-32,41.35-56.71,48.09a81.19,81.19,0,0,1-9.12,1.92c-1.72.27-2.12,2.39-1.49,3.68a627.15,627.15,0,0,1,36.84,94.57q4.16,13.95,7.67,28.06c.49,2,3.65,2.58,4.57.6,15.79-33.89,31.58-67.79,48.05-101.36q12.3-25.06,25.17-49.85c3.49-6.69,6.78-13.78,11.62-19.63a28.89,28.89,0,0,1,8.06-7c3.2-1.78,6.88-2.45,10.09-4.23C306,290.62,307,280,308.48,272.11a207.4,207.4,0,0,0,3.38-30.63l-4.91.66c7.91,35.8,18.66,70.86,29.22,105.94s20.9,70.06,28,105.92a465.77,465.77,0,0,1,8.14,61.12l4.91-.67a267.46,267.46,0,0,1,.18-99.51,277.19,277.19,0,0,1,35.49-92.61,259.46,259.46,0,0,1,29.72-39.75c11.87-13,25.17-25,40.61-33.61a106.94,106.94,0,0,1,12.11-5.83c3.64-1.47,8-3.44,12-2.78,4.44.73,5.47,5.51,6.27,9.24a71.18,71.18,0,0,1,1.49,15.2c0,10.11-1.78,20.11-4,30s-4.68,19.49-7.37,29.14q-8,28.75-18.76,56.64c-3.42,8.87-6.94,17.75-11,26.37-3.57,7.68-7.67,15.29-13.15,21.8a58.26,58.26,0,0,1-8.92,8.56,2.52,2.52,0,0,0,.51,3.93c18.87,8.14,20.69,34.62,9.95,49.92-15,21.35-44.61,25.73-68.73,25.34-15.78-.25-31.42-2.58-46.91-5.5-15.33-2.89-30.59-6.19-45.77-9.76Q255.47,490.49,211,475.79c-25.28-8.42-51.42-17.83-71.91-35.46q-3.82-3.29-7.31-6.91V437c3.42-4.35,9-5.35,14.22-5.88,7-.72,14.08-1.12,21.13-1.37,14.28-.51,28.57-.22,42.82.53,28.62,1.51,57.1,4.84,85.64,7.38q85.78,7.62,172,7.16,48.68-.27,97.29-3.12c3.19-.18,3.22-5.19,0-5q-87.39,5.11-175,1.89-43.5-1.6-86.89-5.29c-28.87-2.45-57.66-5.86-86.58-7.64-16.11-1-32.27-1.48-48.41-.94-7.81.25-15.68.62-23.45,1.55-6,.72-12.42,2.19-16.36,7.19a2.56,2.56,0,0,0,0,3.54c19.6,20.26,46.08,31.47,72.27,40.55,30.62,10.62,61.84,19.56,93.35,27.14q23.83,5.75,47.92,10.45c16.05,3.11,32.28,5.74,48.65,6.28,25.55.85,56.1-3.21,73.51-24.19a42.86,42.86,0,0,0,9.93-29.77c-.52-10-4.45-20.26-12.47-26.64a28.34,28.34,0,0,0-6.49-3.9l.51,3.93c14.29-11.06,21.75-28.11,28.48-44.36a624.39,624.39,0,0,0,21.1-59.15q4.51-15,8.28-30.3a243.81,243.81,0,0,0,6-30.63c1.15-10.11,1.11-20.61-1.53-30.51-1-3.83-2.85-7.65-6.6-9.45s-8.27-1.18-12.18.05C481.75,241.89,466.2,252.93,453,265a246.4,246.4,0,0,0-34.82,40.11,280.12,280.12,0,0,0-47.86,198.12q.89,6.28,2.08,12.51c.53,2.76,5.09,2.15,4.92-.66-2.27-36.61-9.61-72.65-18.95-108-9.39-35.58-20.72-70.6-30.92-105.94-5.76-20-11.15-40-15.64-60.32-.62-2.83-4.81-2.07-4.91.67a198.39,198.39,0,0,1-2.8,27.08c-.75,4.31-1.59,8.62-2.69,12.85-.9,3.52-2.14,7.08-5.42,9s-6.89,2.49-10.11,4.24a31.17,31.17,0,0,0-8,6.36c-4.9,5.32-8.3,11.78-11.64,18.13-17.09,32.57-33.19,65.64-48.92,98.87q-13.34,28.17-26.43,56.44l4.57.59a635.73,635.73,0,0,0-32.9-97.39q-5.76-13.35-12.13-26.44l-1.49,3.67c26.71-4.12,50.19-21.41,64.29-44.16a93.47,93.47,0,0,0,13.37-37.2c1.63-12.69.67-26.41-6.06-37.6-3.08-5.13-7.42-9.53-13-11.76-6.61-2.61-13.75-1.42-20,1.61-7,3.39-13.06,8.74-19,13.64-6.22,5.11-12.23,10.52-17.16,16.91-10,12.95-13.41,29-15.71,44.82-2.55,17.53-5.41,34.89-9.48,52.15-8.5,36-20,71.36-30.74,106.79l-4.07,13.42c-.93,3.09,3.89,4.41,4.82,1.33Z" transform="translate(-91.16 -222.76)"/></svg>